<svg xmlns="http://www.w3.org/2000/svg" xmlns:xlink="http://www.w3.org/1999/xlink" viewBox="0 0 1070 488">
  <g class="interact_with" id="buttom" style="isolation: isolate">
    <path
      d="M1046,327l6,3c4,37.25,8.08,117.55-17,133-13,8-52.83,11.07-75,12-11.67.43-16.64,1-26,1-33,.8-45.29.22-100,1-47.72.68-98.51.63-147.89.71-39.18.06-71.17-.92-109.11-.71-22.35.12-22.84,0-43,0-16.72-.53-15.21.44-32,0-35.62,1-74.7.46-108,0-2,0-22.35-.73-29-1-37.13-1.5-79.94-1-115-8H220C142.87,452.74-7.66,479.29,16,378c3.47-14.85,4.5-26.73,13-36,33.24,9.31,50.46,15.2,108,21,35.64,3.25,47.34,4.67,70,6,136.84,16.64,292.08,6.36,421-17,41.33-4,82.67-6,124-10,17.65-.48,27.45-.36,46-1,60.68-6.67,115.72-2.06,170-9Z"
      fill-rule="evenodd" />
  </g>
  <g class="interact_with" id="side1" style="isolation: isolate">
    <path
      d="M694,84c2.72,0,4.6-2,6-1,12.61,4.15,27.48,30.45,37,40,21.26,21.33,50.15,39.61,81,51,6.74,2.49,11,2.26,19,4,21.72,4.75,51.81-3.45,67-6,5.62-.94,22.32-11.77,30-7,5.32,1.69,6.57,5.6,10,9v2c-18,3.05-27.55,7.14-42,11-6.85,1.83-17.44,3.7-24.07,4.95-17.21,3.26-36.87,8.26-54.93,11.05-5.81.9-17.93,3.46-24,5-11.75,3-21.25,3-33,6-19.87,5.05-47.16,9.74-68,9-6.8-10.15-18.82-17.05-27-26-11.61-12.71-19.69-29-28-45-2.83-5.46-12-20.59-10.82-27.87C636.77,120.67,645,116.47,650,113c9.32-6.48,18.45-16.33,28-22C683.22,87.9,689.3,87.51,694,84Z"
      fill-rule="evenodd" />
    <path
      d="M1046,228c.87,12.63,5.52,33.15,6,46,.78,21-4.51,36-1,54h-3c-3-1.43-17.47-.24-24,0-8.56.32-23.83,3.26-32,4-11.66,1.05-21.22.31-28,2H943c-14.49,0-23.91,2-39,2H874c-8.62,2.12-23-.4-34,2-11.52,2.52-25.28-.79-38,2a98.81,98.81,0,0,1-25,2c-13.35-21.93-15.86-50.71-34-68-2.34-6.05-3.81-4-3-5,1.12-2.87,1.17-1.84,4-3,11-7.29,29.26-4,44-8,7.25-1.95,19-4.13,26-6,3.33,0,4.67-2,8-2,3-.8,7-3.16,10-4,6-1.68,10-3.14,16-5,7.74-2.42,17-5.28,24-8,3.67,0,8.33-3,12-3,6.35-2.38,12-4.71,18-7,3.33-.33,6.67-2.67,10-3,3.58-1.26,8.29-3.82,12-5,12.52-4,22.48-5.62,34-10,13.51-5.13,26.77-15.67,44-16,4.52,5.45,12.19,8.74,17,14C1027.19,212,1030.21,226.74,1046,228Z"
      fill-rule="evenodd" />
    <path
      d="M542,366c-14.44.06-29.74,3.13-44,5-8.54,1.46-11,3-17,3-4.84,1.18-16.16.81-21,2-9.33,0-18.67,0-28.14-.33-13.46,1.05-32.09,2.27-47.86,2.33-34.41.13-77.27,0-108-4-6.67,0-12.33-1-19-1-4.85-1.2-17.15-.81-22-2-6.67,0-12.33-1-19-1-15.26-3.78-36.74-2.24-52-6-6.67,0-12.33-1-19-1-31.71-5.12-60.07-4.45-85-12-7.92-2.4-24-1.86-27-9-3.86-6.06,3.91-16.66,6-21,2.39-5,1.61-9.82,4-15,3.69-8,15.59-18.91,27-19,9.29,8.82,35.07,8.74,51,11,9.31.84,15.33,2,23,2,5.78,1.4,15.69,1.26,24,2,9.33,0,19.67,1,29,1,26.62,1.68,55,1,81,1,15.4,0,39.88,1.35,49,0,10.71-1.58,30.43-5.8,34-9,13.95-12.48,4-37,8-59,19.69-6.44,34-9.86,54-15,6.2-1.59,10.42-5.59,18-6,5,8.2,2.45,9.21,5,19,1.85,7.1,12.23,21.87,15,25,8.5,9.6,20.52,15.33,30,24,2.35,2.14,5.63,4.89,8,7,3.82,3.4,7.06,5.78,10,10a123.26,123.26,0,0,0,8,11C530.21,326,541.84,337.65,542,366Z"
      fill-rule="evenodd" />
  </g>
  <g class="interact_with" id="side2" style="isolation: isolate">
    <path
      d="M603,152c-9.31,3.36-6.82,1.84-15,6-5.92,3.4-10.48,5.58-16,9-14,7.24-35.93,27.69-45,40-6.4,8.69-11.73,30-10,42,2,13.92,17.65,28.2,30,34,8.61,4.05,13.93,4.89,25,6,12.15,1.22,35.15-.2,48-1,10.67,0,21.33-2,32-2,13.87-1.79,25.62-4.17,45-8,11-2.17,34.74-10.57,41-7,10.61,3.56,26,37.93,31,49,1.85,4.11,6.12,17.39,5,20-1.47,2.54-2.12,2-6,2-14.89-2.73-36.41,1.05-46,2-8.66.86-17.88.48-24,2H680c-9.93,2.47-23.41,1.37-34,4-5.33,0-12.67,2-18,2a283.11,283.11,0,0,1-34,6c-9.89,1-39.36,5.68-48,6-6.64,3.21-3.19-8.23-6-18-.85-2.94-10-18.89-12-22-15.7-24.35-39-39.13-59-59-7.13-7.08-16-16.77-22-27-2.83-3.95-5.81-17.05-3-21,8.31-7.37,14.86-9.62,21-14,6.33-4.52,13.63-10.67,21-14,13.72-6.2,30.09-5.55,43-12,13.47-6.73,24.57-18.6,37-26,2.56-1.52,5.34-2.61,8-4s5.35-2.83,8-4c6.67-1.33,13.33-3.67,20-5,6.91-2.48,19.72-11.29,29-11,4,.13,9,16.13,12,22,7.08,13.64,14.48,28.28,23,41,6.48,9.68,28,23,30,34l-1,1c-49.07,6.28-81.93,9.91-96.47-30.4C593.15,179.66,602.5,163,603,152Z"
      fill-rule="evenodd" />
    <path
      d="M368,240c.15,14.31,3.13,38.81-3,48-7.89,11.83-18.18,11.25-34,15-6.81,1.61-16.1.88-23,1-40.28.71-81.52-1.88-121-2-31.36-.09-61.62.29-87-6-11.83-2.93-26.61.79-29-11,11-2.82,22.67-2.65,32-5,4,0,7-2,11-2a220.52,220.52,0,0,0,29-5c4.67,0,12.33-3,17-3,10.29-2.59,20.36-3.5,30-6,4-.33,10-2.67,14-3,8-2.84,17.48-4.5,26-8,10.84-4.45,20.65-7.47,34-11C287.24,278.79,335.5,241.54,368,240Z"
      fill-rule="evenodd" />
  </g>
  <g class="interact_with" id="swosh" style="isolation: isolate">
    <path
      d="M604,152c-1.3,14.27-15.27,35.66-5,52,8,12.78,26,20.21,43,24,4.34,1,19.3-1,27-1,13.07,0,23.46-1.69,35-3,10.18-1.16,22.6-2.88,32-5,3.52-.19,14-2,18-2,26.4-6.55,52.71-8.31,78-15,9.48-2.51,17.87-4,26-6,4,0,7-2,11-2,1.33-1.33,6.67-1.67,8-3,12.5-1.89,8.86-1,13-2,12-3,24.9-4.3,35-8.67,8.57-3.69,14.89-4.42,25-7.33,7.45,9.43,28.38,9.1,42,12a14.17,14.17,0,0,1,1,4,257.13,257.13,0,0,1-56,22c-8,2.09-15.94,5.18-24,8-5.77,2-12.23,4-18,6-1.69.59-12.32,3.36-14,4-7,1.67-8,3.33-15,5-2,1-12.74,4.13-15,5-8.28,3-4.68,1.39-13,4a100.38,100.38,0,0,1-12,4c-3.33,0-10.67,3-14,3-42.58,12.65-82.87,21.39-128,32-10.15,2.39-15.16,1.74-28,3-20.83,2-91,6.75-108-2-8.67-4.45-28.23-22-32-31-8.52-20.31,7.56-51.9,17-62,11.55-12.37,27.33-19.35,42-27C583.49,158.57,591.57,152.31,604,152Z"
      fill-rule="evenodd" />
    <path d="M1051,346c.35.3,2,.52,1,2C1050.89,347.51,1048.89,346.22,1051,346Z" fill-rule="evenodd" />
  </g>
  <g class="interact_with" id="back" style="isolation: isolate">
    <path
      d="M1014,73h4c2.77,4,6,8.25,8,13,.33,4,1.67,8,2,12,2.79,10.89,5.32,29.09,8,40v20c1.32,4.1,5.74,10.61,6,16,.58,12-.4,18.61,2,28,2.09,8.17,5.15,18.25,6,28h-2c-4.59-3.19-11-3.32-15-7-5.92-5.47-8.62-13.95-14-20-6.43-7.24-16.9-13.66-26-18-7.51-3.58-21.32-3.73-31-6s-9.55-3.83-17-6c-9.23-2.69-8.55-3.34-16-11h1c4.31-11.84,20.33-13.32,29-21,2.94-2.6,4.16-4.34,7-7,1.67-.33,3.33-3.67,5-4,7.18-4.62,14.75-22.32,20-30,2-2,4-6,6-8,1.33-3.67,2.67-5.33,5.93-9.11C1006.29,78.74,1010.79,77.35,1014,73Z"
      fill-rule="evenodd" />
  </g>
  <g class="interact_with" id="top" style="isolation: isolate">
    <path
      d="M680,24l8,1c10.12,14.85,31.31,25.68,37,45-.33,5.33,1.33,13.67,1,19-.67,0-3.33-3-4-3-5.29-5.58-9.33-10.84-15-16-3.59-3.27-8.57-7.62-12-11-4.55-4.48-8.15-7.92-14-11-6.69-3.53-11.28-7-21-13,1.33-1.33,4.67-2.67,6-4C670.83,27.77,675.05,25.41,680,24Z"
      fill-rule="evenodd" />
    <path
      d="M701,81c-15.06.75-27.78,9.67-37,16-17.26,11.85-33.12,24.22-52,34-12.46,6.46-27.7,7.79-39,15-7.2,4.6-15,9.71-22,15s-11.34,9.57-21,14c-14.4,6.6-33.14,8.79-47,16-9.82,5.11-19.12,11.63-28,18a48.19,48.19,0,0,1-9,5c-2.22.92-5.26,1.53-9,3-11.05,4.33-26.3,6.82-38,10-3.33.33-7.67,1.67-11,2-1.57.57-4.66,1.42-6,2-3.67.67-7.33,3.33-11,4-1.67,1.67-4.33,1.33-6,3-5.2,2.44-9.56,3.06-15,5-10.91,3.9-21.63,7.3-34,11-10.36,3.1-28.67,6.9-40,1-4.84-2.52-9.16-9.15-13-13v-2c12.49-7.27,29.6-8.84,44-15,3.9-1.67,6.16-5.41,10-7,.56,9.52,8.35,17.18,19,17,2.5-2.43,5.47-4.65,8-7,.15-8.37-.5-16.24-2-22,1,.33,1-1.33,2-1,0-1,1,0,1-1,4.17-5.59,13.05-9.27,21-11-2.34,6.27.79,10.35,5,13,2.06,1.49,4,4.3,9,4,5.3-2.38,6.16-5.08,9-9,.26-2.74,5-26.55,6-28l19-4v7c-3.33,4.71-.61,9.48,0,14a11,11,0,0,0,1,8c7.62,3.24,12.91,4.06,16-4,1.4-2.42,0-6.45,1-10,2.88-10.69,6.05-31.2,18-33-.47,13.9,3.11,19.73,18,19,.28-10.82-1.61-14.28-2-26a118.92,118.92,0,0,1,34-14v8c-3.19,4.08-2.18,15.86-1,18,1.12,2.87.17,1.84,3,3,2.56,1.9,6.43,2.05,11,2,3.6-4.77,9.1-8.38,11-15,2.62-9.16-2.61-21.44,2-28a32.31,32.31,0,0,1,6-4c.31,12.17,4.17,16.7,18,16,1-.8.27-.35,2-1l4-7q-2.5-9-5-18c11.69-.67,9.08-9.43,21-10,2,9.35,6.43,14.4,12,20a56.45,56.45,0,0,0,12-1c1.74-3.47,1.85-2.36,2-8-.86-5.74-4.92-13.42-6-18,22-15,22.79,2.74,48-2,2.07-3.21,3.54-3.7,4-9l-3-8c-2.3-3.74-6.34-5.43-8-10,4.66-3.17,19.91-14.8,28-10C669.6,52.19,696.11,70.94,701,81Z"
      fill-rule="evenodd" />
  </g>
  <g class="interact_with" id="laces" style="isolation: isolate">
    <ellipse cx="678" cy="1" rx="8.49" ry="1.41" />
    <path
      d="M676,4c14.23,1,18.26,10.71,27,17,16.74,12,34.68,23.78,42,45,4.91,14.24-4.14,27.73-3.62,39.61.31,7.17,25.21,21.86,31.62,25.39,2.57,1.41,2.54,1.45,5,3,1,1.67,4,2.33,5,4,3.09,2.37,6.45,3.94,10,6,4,2.29,7.76,5.78,12,8,6.21,3.25,8.74,2.32,16,5,1.56.57,10.42,2.52,12,3,3.33-.33,2.67.33,6,0,9.35,1.77,20.22,2,29,0,6.33,0,16.67-3,23-3,31.58-8.46,57-30.77,73-55,12.54-18.94,19.48-51.61,54-45,1.28,2.07,2.08,2.3,3,5,1.91,2.67.71,7-1,9-4.63,4.09-12.39,3.87-16,9-9,12.86-14.15,26.79-23,40l-27,27c-3,1-6,4-9,5-2.33,2.33-4.67,2.67-7,5-7.35,4.35-15.37,6.77-24,10-7.3,2.73-16.82,6.67-24,9-9.71,3.15-21,2.9-35.79,3.32-18.49.52-36.45-5-50.21-10.32-38.84-15.13-59.78-39.68-85-68-3.71-4.17-7.5-7.73-11-12-1.81-2.21-4.15-5.85-6-8-4.62-5.39-12.77-13.66-19-18-7.91-5.51-16.4-14-27-17-6.71-1.88-10.55,3.83-17,4-2.2,3.31-5.19,1.93-6,7,4.69,4.44,10.17,15.39,11,23-.8,1-.35.27-1,2a25,25,0,0,0-5,4H622c-4.18-6.59-14.35-12.94-24-11-5.59,11,.59,20.33,1,35-4.71,3-6.5,5-15,5-1.47-2.34-3.28-2.18-5-4-5-5.22-2.62-15-12-16-4.69,5.52-9.11,3.8-9,15-2.3,3.22-2.73,11.15-3,16-4.79,3.09-8.06,4.15-17,4-3-4.82-5-7.51-5-16,2.89-3.28,3.47-8.35,6-12,6-8.62,21.09-12.51,33-15,5.69-12.11,11.69-22.65,24-28,7.13-3.1,15.71-1.37,21-6,1.69-1.48,2.4-4.4,4-6,5.67-5.66,12.33-10.33,18-16,3-3,4.92-7.19,8-10C655.28,13.45,666.84,10.8,676,4Z"
      fill-rule="evenodd" />
    <path
      d="M726,86c.5-25.72-14.37-36.38-27-49-5.59-5.59-8.38-12.26-19-13-6.08,4.78-16,6.12-17,16,13.71,8.44,32.55,16.37,44,27,5.41,5,7.77,15,15,18C723.18,85.8,723.68,85.77,726,86Z"
      fill-rule="evenodd" />
    <path
      d="M526,112h4v2c-10.44,14.65,1.22,47.12-24,47-4.7-3.12-8.3-1.5-9-9-.88-1.83.75-5.74,0-10C493.73,123.56,515,119.84,526,112Z"
      fill-rule="evenodd" />
    <path
      d="M494,128v3c-4.26,2.43-14.63,7.81-17,12-2.63,4.65-.57,13.75-2,17-2.31,4.59-5.71,6.56-9,10-10.87-.25-10.34-6.89-20-8-3.12,2.88-7.28,3.63-9,8-4.31,6.73-4.29,17.13-6,26-2.73,1.71-2.5,2.54-7,3-2.78,1.87-10.48-.22-12-3,3.23-4.6.26-10.5,0-18-14.45,1.08-19.8,12.53-28,20a39.34,39.34,0,0,1,1,8c-3.21,2.07-3.7,3.54-9,4-4.35-3.95-7.88-3.32-8-12-.8-1.18-.77-1.68-1-4,2.9-2.26,2.67-5.16,5-8,3.7-4.52,16.58-12.49,22-15,6.26-2.9,15.53.46,20-2,6.9-3.79,10.41-13.9,18-17l23-5C469.1,139.84,470,128.06,494,128Z"
      fill-rule="evenodd" />
    <path
      d="M336,198a33.79,33.79,0,0,1,8,1c-3,4.86,1,20.26-1,31a25,25,0,0,0-5,4c-5.2.5-10.15,1.86-14-1-6.08-1.76-12-6.83-12-15-2.25-3-1.75-6.36-1-10C318.21,204.87,329.65,202.77,336,198Z"
      fill-rule="evenodd" />
  </g>
  <g id="shadow_Image" data-name="shadow Image">
    <image id="shadow_Image-2" data-name="shadow Image" width="1070" height="488" xlink:href="./images/airforce1.png" />
  </g>
</svg>